<?xml version="1.0" standalone="no"?>
<!DOCTYPE svg PUBLIC "-//W3C//DTD SVG 20010904//EN"
 "http://www.w3.org/TR/2001/REC-SVG-20010904/DTD/svg10.dtd">
<svg version="1.0" xmlns="http://www.w3.org/2000/svg"
 width="1200.000000pt" height="1200.000000pt" viewBox="0 0 1200.000000 1200.000000"
 preserveAspectRatio="xMidYMid meet">
<metadata>
Created by potrace 1.11, written by Peter Selinger 2001-2013
</metadata>
<g transform="translate(0.000000,1200.000000) scale(0.100000,-0.100000)"
fill="#000000" stroke="none">
<path d="M5649 10856 c-2 -2 -38 -7 -79 -10 -135 -12 -166 -15 -196 -20 -16
-3 -51 -8 -79 -11 -27 -4 -57 -8 -65 -10 -8 -2 -35 -7 -60 -10 -25 -4 -63 -10
-85 -15 -22 -5 -56 -12 -75 -15 -80 -14 -288 -67 -412 -105 -73 -23 -137 -42
-143 -44 -5 -2 -17 -6 -25 -9 -8 -3 -71 -26 -140 -52 -657 -245 -1238 -622
-1745 -1131 -120 -120 -245 -260 -309 -342 -11 -15 -23 -29 -26 -32 -9 -8
-129 -166 -186 -245 -70 -98 -224 -341 -224 -354 0 -6 -3 -11 -7 -11 -5 0 -13
-10 -19 -23 -6 -12 -52 -101 -102 -197 -150 -290 -260 -568 -350 -880 -29 -98
-76 -290 -84 -335 -3 -20 -12 -20 -613 -22 -336 0 -613 -2 -618 -2 -4 -1 -6
-445 -5 -987 l3 -987 614 -1 614 -1 32 -135 c131 -555 355 -1075 664 -1540 53
-80 98 -149 100 -155 2 -5 7 -12 10 -15 3 -3 26 -32 50 -65 137 -185 317 -392
492 -565 95 -94 135 -131 284 -260 51 -45 165 -136 230 -183 28 -20 56 -41 62
-47 33 -27 340 -224 433 -277 433 -247 927 -435 1400 -533 58 -12 114 -24 125
-26 67 -14 292 -45 440 -61 161 -17 842 -8 1008 13 88 11 177 23 212 30 10 2
37 6 60 9 22 3 47 8 55 10 8 2 29 7 45 10 17 2 39 7 50 9 448 95 817 226 1220
431 534 271 993 622 1398 1068 64 70 104 117 216 252 228 278 513 759 663
1120 106 255 214 586 258 790 6 28 15 66 20 86 l10 36 598 1 c328 1 605 1 615
1 16 1 17 55 17 986 0 781 -3 985 -12 986 -7 1 -285 2 -618 2 l-605 2 -22 100
c-13 55 -25 113 -28 129 -3 16 -8 33 -11 37 -3 5 -14 42 -24 83 -79 301 -269
755 -441 1054 -27 47 -49 86 -49 88 0 15 -258 396 -272 402 -4 2 -8 8 -8 13 0
12 -185 242 -280 349 -84 94 -296 307 -390 390 -480 427 -1028 749 -1645 968
-60 22 -112 40 -115 40 -3 0 -12 3 -20 6 -36 12 -205 60 -250 71 -111 27 -218
50 -325 69 -162 30 -204 36 -340 51 -33 4 -71 9 -85 12 -30 6 -805 14 -811 9z
m546 -1730 c61 -3 121 -8 135 -10 14 -3 52 -8 85 -11 49 -5 174 -28 333 -61
73 -15 359 -108 427 -139 16 -8 59 -26 95 -40 69 -29 230 -111 318 -164 624
-370 1115 -959 1357 -1628 14 -37 25 -73 25 -79 0 -7 -881 -10 -2970 -10
-2107 0 -2970 3 -2970 10 0 13 56 164 91 246 69 164 213 420 317 565 164 228
381 462 567 610 28 22 52 42 55 45 3 3 39 31 80 61 381 283 853 486 1307 563
144 25 238 35 374 42 74 4 135 7 136 8 2 2 118 -2 238 -8z m2775 -4131 c0 -8
-4 -24 -9 -37 -6 -13 -26 -65 -46 -117 -93 -241 -243 -509 -407 -727 -345
-460 -817 -823 -1345 -1033 -83 -33 -235 -86 -278 -97 -5 -2 -44 -12 -85 -24
-41 -11 -86 -22 -100 -25 -14 -3 -36 -7 -50 -10 -212 -44 -413 -65 -635 -66
-231 -1 -370 12 -625 58 -14 2 -54 11 -90 19 -36 9 -72 17 -81 19 -50 10 -230
69 -334 108 -411 155 -790 402 -1109 723 -56 55 -114 116 -130 135 -63 75
-174 217 -207 264 -18 28 -37 52 -41 53 -5 2 -8 8 -8 13 0 6 -17 36 -38 67
-78 115 -149 249 -237 447 -31 69 -85 216 -85 231 0 9 752 12 2970 12 2494 0
2970 -2 2970 -13z"/>
</g>
</svg>
